<?xml version="1.0" standalone="no"?>
<!DOCTYPE svg PUBLIC "-//W3C//DTD SVG 1.1//EN" "http://www.w3.org/Graphics/SVG/1.1/DTD/svg11.dtd" >
<!--
2013-9-30: Created.
-->
<svg>
<metadata>
Created by iconfont
</metadata>
<defs>

<font id="iconfont" horiz-adv-x="1024" >
  <font-face
    font-family="iconfont"
    font-weight="500"
    font-stretch="normal"
    units-per-em="1024"
    ascent="896"
    descent="-128"
  />
    <missing-glyph />
    
    <glyph glyph-name="icon" unicode="&#58894;" d="M80.636017 416.377408l361.851305 332.651262 212.604142-204.220195L854.423325 773.152091 783.032368 848.682321l191.948707 0.024559-0.064468-191.93438-67.921949 67.986417L655.091464 445.568241l-212.847689 211.909317L127.064442 363.022223 80.636017 416.377408zM143.295102 276.680762l64.084551 0 0-323.364759-64.084551 0 0 323.364759ZM399.17998 460.875878l64.084551 0 0-507.559874-64.084551 0 0 507.559874ZM654.948201 336.032522l64.084551 0 0-382.716518-64.084551 0 0 382.716518ZM910.774751 528.414087l64.084551 0 0-575.098083-64.084551 0 0 575.098083Z"  horiz-adv-x="1024" />

    
    <glyph glyph-name="pengyouwang" unicode="&#58906;" d="M539.494719 432.49482c0 0-35.859165 296.041955-5.983994 370.653083 15.258865 38.213083 63.374019 107.882136 157.588328 89.958313 85.549998-16.255984 74.311608-109.460375 74.311608-109.460375s65.306817 30.206691 128.109957-6.652154c41.77276-24.578536 151.944814-231.198497-82.321841-280.74085C594.291466 450.430163 539.494719 432.49482 539.494719 432.49482zM539.494719 411.99436c0 0 272.688378 44.258517 378.231956 9.97503 106.168218-34.597087 137.356668-158.806887 69.159613-235.442973-26.780134-30.114531-106.984857-23.386857-106.984857-23.386857s23.892457-83.60184-22.865898-132.383873c-46.833875-48.766673-137.846907-57.818824-185.187662-1.012479C592.221708 125.315596 539.494719 391.5259 539.494719 411.99436zM508.604509 434.979298c0 0 3.304957 330.891201-125.429639 406.023289-61.733061 36.053725-168.706398 13.116147-215.003953-46.282195-32.300769-41.50268-36.931804-92.890791-25.855975-121.948043 0 0-120.668044 6.356474-140.125305-107.999896-20.64638-121.427083 111.244693-156.08177 122.186122-157.242729 73.15065-7.993592 156.30705 18.548462 260.792069 27.450854C444.86313 440.100573 508.604509 434.979298 508.604509 434.979298zM521.601616 410.983161c0 0-198.760769 15.170545-357.031336-112.271252-83.632559-67.284415-78.375605-170.105436-47.175635-231.140898 22.926058-44.790997 82.6508-69.681853 149.325936-61.702341 0 0 9.93023-115.457169 115.441809-132.399233 72.42233-11.609589 181.269586 50.882511 191.169096 130.420354C591.209229 148.212214 508.619869 345.289784 521.601616 410.983161z"  horiz-adv-x="1024" />

    
    <glyph glyph-name="jiage1" unicode="&#59359;" d="M881.856 896l-136.384 0L592.256 609.6c-40.896-77.632-65.856-129.28-75.008-154.752L514.56 454.848C487.616 516.992 411.584 664 286.272 896L142.144 896 410.24 428.992 190.4 428.992 190.4 325.76l257.664 0 0-142.208L190.4 183.552l0-104.448 257.664 0L448.064-128 576-128l0 207.104 248.512 0 0 104.448L576 183.552 576 325.76l248.512 0L824.512 428.992 611.2 428.992 881.856 896 881.856 896zM881.856 896"  horiz-adv-x="1024" />

    
    <glyph glyph-name="pinglun1" unicode="&#58996;" d="M511.222287 49.657212c-28.644387 0-56.55097 2.594081-83.706447 7.076162l-193.108113-106.749256L234.407728 125.626441C132.112923 197.45128 63.405075 317.801299 63.405075 441.479109c0 216.398562 200.49536 391.821897 447.818235 391.821897 247.306502 0 447.818235-175.428452 447.818235-391.821897C959.040523 225.066221 758.524696 49.657212 511.222287 49.657212L511.222287 49.657212zM512.950651 809.240007c-231.782947 0-419.680385-164.800393-419.680385-368.056634 0-124.719536 63.754023-234.764861 171.95535-301.319673l-0.86367-141.252071 147.252739 85.776595c32.509415-7.095605 66.323545-11.260461 101.335966-11.260461 231.792157 0 419.675268 164.768671 419.675268 368.056634C932.62592 644.439614 744.743832 809.240007 512.950651 809.240007L512.950651 809.240007zM735.130893 385.503237c-30.912034 0-55.980989 25.048489-55.980989 55.975872 0 30.91408 25.068955 55.975872 55.980989 55.975872 30.91408 0 55.975872-25.061792 55.975872-55.975872C791.106766 410.551726 766.044974 385.503237 735.130893 385.503237L735.130893 385.503237zM511.222287 385.503237c-30.91408 0-55.975872 25.048489-55.975872 55.975872 0 30.91408 25.061792 55.975872 55.975872 55.975872 30.913057 0 55.975872-25.061792 55.975872-55.975872C567.19816 410.551726 542.135344 385.503237 511.222287 385.503237L511.222287 385.503237zM287.312658 385.503237c-30.913057 0-55.974849 25.048489-55.974849 55.975872 0 30.91408 25.061792 55.975872 55.974849 55.975872 30.91408 0 55.975872-25.061792 55.975872-55.975872C343.28853 410.551726 318.226738 385.503237 287.312658 385.503237L287.312658 385.503237zM287.312658 385.503237"  horiz-adv-x="1024" />

    
    <glyph glyph-name="socialcss3" unicode="&#59631;" d="M512.564 217.024 512.564 217.024zM128 832l69.892-806.438L511.534-64l314.518 89.7L896 832 128 832zM709.352 162.204l-197.214-56.25-196.916 56.496L301.728 318l96.506 0 6.866-79.124 107.172-30.326 0.264-0.546 0.068 0 106.934 29.704L630.762 366 406 366l-8 100 241.292 0 8.792 102L280 568l-8 98L753.16 666 709.352 162.204z"  horiz-adv-x="1024" />

    
    <glyph glyph-name="huojian-copy" unicode="&#58882;" d="M760.789 456.113c3.606 284.845-230.761 414.648-248.789 425.465v0c0 0 0 0 0 0s0 0 0 0v0c-14.423-7.211-252.394-137.014-248.789-425.465-46.873-32.451-97.352-86.535-90.141-180.282 7.211-93.746 100.958-158.648 137.014-155.042 36.056 3.606 25.239 28.845 25.239 28.845l10.817 50.479c0 0 54.085-79.324 68.507-79.324s86.535 0 97.352 0v0c0 0 0 0 0 0s0 0 0 0v0c7.211 0 79.324 0 97.352 0s68.507 79.324 68.507 79.324l10.817-50.479c0 0-10.817-25.239 25.239-28.845 36.056-3.606 129.803 61.296 137.014 155.042 7.211 93.746-43.268 147.831-90.141 180.282v0zM512 459.718c-7.211 0-93.746 3.606-104.563 104.563 3.606 97.352 97.352 104.563 104.563 108.169 7.211 0 100.958-10.817 104.563-108.169-10.817-100.958-97.352-104.563-104.563-104.563v0zM457.915-34.254c0-10.817-10.817-21.634-21.634-21.634v0c-10.817 0-21.634 10.817-21.634 21.634v104.563c0 10.817 10.817 21.634 21.634 21.634v0c10.817 0 21.634-10.817 21.634-21.634v-104.563zM537.239-88.338c0-10.817-10.817-21.634-21.634-21.634v0c-10.817 0-21.634 10.817-21.634 21.634v155.042c0 10.817 10.817 21.634 21.634 21.634v0c10.817 0 21.634-10.817 21.634-21.634v-155.042zM609.352-9.014c0-10.817-10.817-21.634-21.634-21.634v0c-10.817 0-21.634 10.817-21.634 21.634v75.718c0 10.817 10.817 21.634 21.634 21.634v0c10.817 0 21.634-10.817 21.634-21.634l0-75.718zM609.352-9.014z"  horiz-adv-x="1024" />

    
    <glyph glyph-name="jiantouarrow594" unicode="&#58986;" d="M1024 384c0 282.763636-229.236364 512-512 512C229.236364 896 0 666.763636 0 384c0-282.763636 229.236364-512 512-512C794.763636-128 1024 101.236364 1024 384zM550.306909 627.432727l66.094545-66.094545L435.432727 380.276364l197.166545-197.166545-65.815273-65.815273L303.476364 380.602182 550.306909 627.432727z"  horiz-adv-x="1024" />

    
    <glyph glyph-name="liulan" unicode="&#58909;" d="M511.999488 240.673687c-76.517721 0-138.76953 62.250786-138.76953 138.768507s62.251809 138.76953 138.76953 138.76953c76.516698 0 138.768507-62.251809 138.768507-138.76953S588.516186 240.673687 511.999488 240.673687zM511.999488 479.326089c-55.076386 0-99.883895-44.807509-99.883895-99.883895 0-55.075363 44.807509-99.882871 99.883895-99.882871 55.075363 0 99.882871 44.807509 99.882871 99.882871C611.88236 434.51858 567.074851 479.326089 511.999488 479.326089zM960.482873 364.553089c-7.040347-0.001023-13.8351 3.835352-17.289782 10.521634-35.639708 68.973908-99.196233 133.827985-174.370353 177.932482-76.656891 45.420469-167.369915 70.383-255.617795 70.383-0.773619 0-1.545192 0-2.317789 0-88.348164 0-179.051979-24.959461-255.640308-70.341045-75.247798-44.147476-138.804323-109.001553-174.443008-177.974437-4.929266-9.540284-16.656355-13.279445-26.198685-8.348132-9.53926 4.929266-13.277398 16.658402-8.348132 26.198685 38.922475 75.325569 107.897406 145.897881 189.240015 193.620789 41.174772 24.397666 85.84618 43.334971 132.702348 56.245002 47.355541 13.047154 95.715969 19.6045 143.847176 19.48375 48.006364 0.075725 96.396467-6.436596 143.750985-19.48375 46.856168-12.910031 91.527576-31.847336 132.775003-56.286957 81.269955-47.679929 150.244886-118.252241 189.167361-193.57781 4.929266-9.53926 1.192152-21.269419-8.348132-26.198685C966.538799 365.25303 963.488323 364.553089 960.482873 364.553089zM513.240759 100.54316c-0.859577 0-1.716084 0-2.575662 0-47.578622 0-95.531773 6.554276-142.465712 19.485797-46.856168 12.909008-91.527576 31.846312-132.773979 56.286957-81.269955 47.680952-150.244886 118.253264-189.167361 193.57781-4.929266 9.53926-1.192152 21.269419 8.348132 26.198685s21.268396 1.192152 26.198685-8.348132c35.639708-68.973908 99.19521-133.827985 174.370353-177.932482 76.656891-45.420469 167.369915-70.381977 255.617795-70.381977 0.772596 0 1.545192 0 2.317789 0 88.348164 0 179.050955 24.959461 255.639285 70.338998 75.246775 44.148499 138.803299 109.002576 174.444031 177.975461 4.930289 9.540284 16.658402 13.274328 26.199709 8.348132 9.53926-4.929266 13.277398-16.659425 8.347109-26.198685-38.923498-75.326593-107.898429-145.898905-189.241039-193.620789-41.173748-24.397666-85.84618-43.334971-132.702348-56.243979C608.8677 107.098459 560.908408 100.544183 513.240759 100.54316z"  horiz-adv-x="1024" />

    
    <glyph glyph-name="sousuo" unicode="&#58973;" d="M1003.688952-9.685546l-244.980517 244.980517c-1.50393 1.50393-3.19985 2.591879-4.767777 3.903817 115.994563 162.392388 101.563239 389.261753-44.221927 535.014921-162.360389 162.360389-425.580051 162.360389-587.94044 0-162.360389-162.360389-162.360389-425.580051 0-587.94044 145.785166-145.785166 372.654532-160.21649 535.04692-44.221927 1.311939-1.567927 2.399888-3.295846 3.903817-4.767777l244.980517-244.980517c27.070731-27.070731 70.940675-27.070731 97.979407 0C1030.727685-80.594222 1030.727685-36.724279 1003.688952-9.685546zM187.119229 251.646204c-126.266081 126.266081-126.266081 330.992485 0 457.290565 126.266081 126.266081 330.992485 126.266081 457.290565 0 126.266081-126.266081 126.266081-330.992485 0-457.290565C518.111714 125.348124 313.38531 125.348124 187.119229 251.646204z"  horiz-adv-x="1024" />

    
    <glyph glyph-name="pinglun" unicode="&#58946;" d="M512 55.782397c-27.974819 0-55.21986 2.554223-81.735123 6.93289L238.819812-53.441026l0 193.391139C138.961872 210.00879 74.863048 317.529398 74.863048 438.307637 74.863048 649.456705 270.56515 820.711248 512 820.711248c241.43485 0 437.136952-171.254543 437.136952-382.403611C949.136952 227.03694 753.31322 55.782397 512 55.782397L512 55.782397zM512 766.099537c-211.270697 0-382.525241-146.806984-382.525241-327.791899 0-111.047868 64.585343-209.081364 163.226987-268.436631l-1.702815-126.738092 128.562537 77.356456c29.677634-6.324742 60.449935-9.973631 92.316902-9.973631 211.270697 0 382.525241 146.806984 382.525241 327.791899C894.403611 619.292553 723.270697 766.099537 512 766.099537L512 766.099537zM730.568476 383.574296c-30.164153 0-54.611712 24.447559-54.611712 54.611712 0 30.164153 24.447559 54.611712 54.611712 54.611712 30.164153 0 54.611712-24.447559 54.611712-54.611712C785.180188 408.021855 760.732629 383.574296 730.568476 383.574296L730.568476 383.574296zM512 383.574296c-30.164153 0-54.611712 24.447559-54.611712 54.611712 0 30.164153 24.447559 54.611712 54.611712 54.611712 30.164153 0 54.611712-24.447559 54.611712-54.611712C566.611712 408.021855 542.164153 383.574296 512 383.574296L512 383.574296zM293.431524 383.574296c-30.164153 0-54.611712 24.447559-54.611712 54.611712 0 30.164153 24.447559 54.611712 54.611712 54.611712 30.164153 0 54.611712-24.447559 54.611712-54.611712C348.043236 408.021855 323.595676 383.574296 293.431524 383.574296L293.431524 383.574296zM293.431524 383.574296"  horiz-adv-x="1024" />

    
    <glyph glyph-name="pinglun2" unicode="&#58897;" d="M979.235982 228.697935l-0.929162-5.597485-0.936325-2.798742-0.929162-1.865487-0.936325-1.865487-0.930185-0.928139-0.935302-1.865487-0.930185-1.865487-0.935302-2.798742-0.928139-1.865487-0.937348-1.865487-0.930185-1.860371-0.936325-0.938372-0.927115-0.927115-0.938372-0.938372-0.927115-0.933255-0.930185-1.860371-0.935302-0.932232-0.930185-2.798742-1.863441-0.933255-1.867534-0.932232 0-1.865487-1.865487 0-0.936325-1.865487-0.928139-1.867534-1.865487-0.926092-1.865487-0.933255-1.865487-0.932232-0.931209-0.939395-0.934279-0.926092-0.931209-1.866511-0.934279-0.932232-2.793626-0.933255-2.803859-0.927115-2.792603-0.938372-1.865487-0.927115-1.866511-0.938372-0.935302-1.866511-1.857301-0.927115-2.803859-0.937348-8.391111-0.928139-337.616344-0.938372-2.792603-0.927115-0.938372-0.937348-0.927115-0.928139-0.936325-0.928139-0.929162-0.937348-0.936325-0.934279-1.867534-0.931209 0-1.865487-1.866511 0 0-0.928139c-2.342348-8.798387-11.932774-6.55223-12.120039-14.927991-5.796006-1.348718-6.323009-2.225691-9.488095-6.358825-3.304256-4.310166-7.122211-1.600451-7.297197-9.496282l-5.16258-0.671289-4.166903-2.12029-0.432859-4.801353-8.893554-4.529153c-0.62524-5.717212-3.533476-2.960425-6.343475-5.780657-3.196809-3.203972 1.354857-6.164397-6.707772-6.342452l0-2.802836-1.866511 0-0.069585-5.420453-2.733251-1.105171-4.660136 0-3.730974-6.525624c-5.696746-0.130983-7.974625-3.89982-10.417257-7.302313-2.665713-3.711532-7.624654-3.89368-8.234545-9.490142-9.782807-2.272763-5.988388-4.352121-9.188266-7.589862-2.871397-2.902096-6.493901 0.464581-8.529257-8.260128-7.79043-0.171915-14.811334-10.350742-17.720593-15.85613-8.483208-0.182149-5.65786-3.163039-11.574616-7.082302-4.25593-2.819209-1.987261-1.89721-4.339842-4.983501-1.325182-1.739621-3.693112-2.494821-5.53711-3.78828-4.652973-3.28379-14.887059-16.318664-20.514219-16.787338l0-2.798742c-4.934382-1.782599-1.711991-3.815909-9.330506-5.593392l-12.93766-15.119349 0.815575-0.73985c-4.00522-0.328481-8.893554-2.548032-9.328459-6.525624l-2.794649 0c-2.847861 0-7.462972 1.755993-7.462972 4.669346l0 3.721765c0 2.829442 1.827625 4.357238 4.790096 4.638647l2.635013 15.906272 8.429996 10.238179c0 19.414165 3.632737 11.30344 5.596462 18.647709l1.865487 0 0 0.934279 0.959861 16.739243 5.825682 2.815115 2.146896 16.162098 5.872754 4.399193 1.049912 8.376785 0 5.597485c3.609201 1.307785 6.526647 6.598278 6.526647 12.124132l1.866511 0 0 8.401344c0 5.728468 8.391111 3.016707 8.703219 17.539468l7.212262 12.669554-0.944512 0.485047 1.812275 1.016143 0.935302 0 0 4.660136 0 6.525624 2.796696 0c0.403183 3.680832 3.731998 5.551436 3.731998 8.402367l0 3.730974c0 4.930289-9.54233 1.856277-14.919804 1.856277L98.831424 167.152207c-10.387581 0-12.223393 1.530866-15.855106 8.401344-13.981433 0-6.244214 7.144724-19.587104 10.256598-0.159636 6.953366-7.036253 8.589632-9.328459 14.916734l-4.782933-0.031722-3.601015 15.000646-5.475711 0.906649-1.065262 10.242272L39.135834 761.23262c0 5.490038 0.26606 9.81453 5.429663 10.308787l3.973498 14.773472 6.451946 3.831258c2.125407 9.108448 7.54586 5.406127 9.326413 13.050224l3.733021 0 1.864464 0 1.865487 0.937348 0.929162 0.930185 1.867534 0.935302 0.936325 0.931209 0.929162 0.937348 0.937348 0.928139 0.929162 0.937348 0.935302 0.929162 2.794649 0.937348 3.730974 0.929162 2.795673 0.929162 2.802836 0.935302 1.864464 0.930185 0.930185 0.937348 1.865487 0.929162 0.936325 0.937348 5.598508 0.928139 816.987203 0 5.597485-0.928139 0.931209-0.937348 0.934279-0.929162 2.793626-0.937348 1.865487-0.930185 1.865487-0.935302 3.733021-0.929162 3.730974-0.929162 0.926092-0.937348 1.867534-0.929162 0.934279-0.937348 0.931209-0.928139 0.937348-0.937348 0.928139-0.931209 1.865487-0.935302 1.865487-0.930185 1.865487-0.937348 0.928139-0.927115 0.937348-0.938372 0.927115-1.864464 0.939395-0.929162 0.927115-0.937348 0.938372-0.928139 1.865487-0.930185 0.927115-0.937348 0.935302-0.929162 0.931209-1.865487 0.934279-1.865487 0.931209-0.937348 0.926092-1.865487 0.939395-0.930185 1.865487-0.935302 0.928139-1.867534 0.937348-1.863441 0.928139-2.794649 0.934279-1.866511 0.931209-2.794649 0.934279-0.938372 0.931209-1.863441 0.934279-1.867534 0.931209-1.865487 0.936325-1.864464 0.929162-6.526647 0.936325-12.124132 0-506.420935-0.936325-12.123109L979.235982 228.694865zM475.611743 18.850579l1.865487 0 0.933255 0.933255 1.865487 0.932232 0.930185 0.939395 0.938372 0.927115 0 0.932232 1.863441 5.599532c4.609994 0.379647 2.642177 1.678222 7.455809 2.796696 0.946558 4.050246 10.510378 13.526061 13.989619 15.84999l3.730974 0 0 2.799766 1.865487 0c0.333598 4.028757 0.527003 3.637854 4.668323 3.730974l0 2.798742 2.795673 0c1.011027 4.357238 2.207271 5.477758 7.460925 5.597485 1.25662 5.398964 3.085268 3.106758 4.663206 7.458879l3.730974 0c1.873674 8.030907 3.883447 5.685489 9.517771 9.349949l-1.12666 7.438413 8.391111 0c2.761903 7.625678 9.493212 5.728468 10.264784 14.916734 11.659551 0 6.762007 8.500605 16.647145 9.360182l1.074472 5.565762c6.980995 1.63115 10.438747 3.038196 12.123109 10.256598 6.328126 0 11.172457 1.865487 20.515243 1.865487 7.460925 0 14.923898 0 22.38073 0 15.237029 0 30.465872 0 45.706995 0 30.458709 0 60.925604 0 91.394546 0 30.15581 0 60.311621 0 90.469478 0 15.229866 0 30.459732 0.031722 45.696762 0 12.961196-0.021489 9.952676 1.073448 18.298761 4.080945 2.421142 0.874927 17.324574 2.444679 21.452591 2.064009l4.080945 6.916527c10.225899 0 15.855106-2.162246 15.855106 8.391111 2.916423 0.245593 3.311419 0.934279 6.525624 0.934279l2.741437 0.030699 2.856048 6.500041 4.660136 0c2.345418 8.775874 9.595542 6.936993 10.264784 14.915711 8.644891 2.01796 6.128581 9.344832 13.053294 11.195993l0 3.730974c0 6.374174 5.649674 10.887978 7.797593 19.014052l2.322905-2.184759 1.073448 1.818415L1018.40712 782.682142c-6.161327 2.542916-2.210341-3.099594-5.186116 6.008854-0.75213 2.306532-4.104481 6.282077-5.412266 7.226588l-3.390213 11.011798-3.403516 0.083911-2.192945 9.244548-5.513574 0.014326-1.014096 6.511297c-7.79657 4.128017-5.931083 9.144264-13.95892 9.336646l-0.966001 4.652973-2.795673 0 0 3.730974c-9.014304 0.204661-8.17724 7.463995-19.585057 7.463995l-6.528694 0c-0.14224 6.456039-2.114151 4.498454-6.545066 7.172353l-23.303752 1.218758c-3.275603 2.190899-6.662747 2.800789-12.123109 2.800789l-790.862195-0.106424-29.859052-3.624551-6.107091-0.768503-11.704576-6.221702-11.102872-2.338255c-0.434905-5.222955-5.652743-6.388501-9.778714-7.705496l-3.27458-6.2831-5.124717 0.168846L36.338115 823.720813l-2.794649 0c-2.521426 0-2.573615-0.449231-4.668323-0.937348-0.756223-9.122775-4.729721-5.336542-7.220449-10.501168-0.966001-2.00261-5.825682-11.788487-5.831822-11.878538l-2.803859 0 0-9.330506c0-3.812839-0.943488-5.28333-4.239558-5.79396l-2.599198-4.455475L4.627902 725.79041l-0.319272-464.459241 2.222621-56.769958 3.191692-1.293459 2.436492-4.852518 0.859577 0.438998 0-5.593392c0-9.026584 7.463995-8.881274 7.463995-13.06148l0.257873-3.480264 11.416004-10.815323 4.181229-7.157004 7.461949 0 0-2.792603c0-1.38658 2.010797-4.123924 2.794649-5.599532 7.325849 0 9.579169-1.270946 10.250458-7.53051l12.022825-0.911766 2.931772-5.369288 25.161053-2.969635c2.064009-1.38658 6.442736-4.670369 9.320273-4.670369l251.816213 0c4.882194 0 15.854083 2.904143 15.854083-2.792603l0-8.402367c0-5.338588-1.49198-6.661723-2.00875-10.873652l-5.833869-2.162246-0.509606-17.575284-3.41068 0.319272-4.090155-2.345418 0-8.392134c0-13.425777-8.392134-11.111059-8.392134-17.71957l0-11.195993c-7.53051-1.750877-9.329483-4.54348-9.329483-13.989619l0-3.726881c-5.269004-1.412163-7.461949-13.456477-7.461949-20.519336-6.107091-1.626034-7.461949-10.705829-7.461949-18.653849l0-29.843702c0-2.517333 0.448208-2.564405 0.937348-4.660136l0.716314 0.662079 3.326768-3.89368 6.214539-3.305279c1.957585-8.4126 4.843308-7.451716 14.863523-7.54586l5.650697-2.710738 0-2.792603 10.266831 0c3.776 0 5.519714 1.886977 6.523577 4.624321l14.735609 1.146103 5.779633 7.2798c5.742794 0.130983 16.335037 10.41521 17.2335 15.158235l7.950066 4.429893 0 3.731998c7.668657 0.64059 6.26775 8.213056 15.138792 10.971889 6.959505 2.162246 1.301645 3.252067 6.928806 6.134721 5.649674 2.89084 4.393054 1.567705 5.909593 8.077979 6.578836 0 7.895831 1.454118 8.391111 7.462972l2.802836 0c2.51938 0 2.564405 0.438998 4.461615 0.964978l1.13587 6.493901c16.866133 3.930519 0.348947 9.324366 14.916734 9.330506l-3.730974-3.738138L475.611743 18.852626zM246.681774 484.95939m-72.625064 0a70.971 70.971 0 1 0 145.250128 0 70.971 70.971 0 1 0-145.250128 0ZM737.07364 484.95939m-72.625064 0a70.971 70.971 0 1 0 145.250128 0 70.971 70.971 0 1 0-145.250128 0ZM487.797273 484.95939m-72.625064 0a70.971 70.971 0 1 0 145.250128 0 70.971 70.971 0 1 0-145.250128 0Z"  horiz-adv-x="1024" />

    
    <glyph glyph-name="ai-arrow-down" unicode="&#58968;" d="M454.188 110.978c-145.192 150.177-290.378 300.353-435.422 450.526-59.842 61.836 37.327 154.021 97.313 91.899 129.23-133.647 258.318-267.296 387.548-400.868 133.646 134.287 267.436 268.574 401.083 402.934 60.84 61.123 158.011-31.060 97.244-91.971-150.105-150.89-300.279-301.703-450.454-452.521-24.933-24.934-72.666-25.575-97.311 0z"  horiz-adv-x="1024" />

    
    <glyph glyph-name="zuozhe1" unicode="&#59016;" d="M512.498688 321.652736c-60.248064 0-116.678656 27.23328-158.885888 76.678144-41.314304 48.397312-64.06144 112.515072-64.06144 180.543488 0 68.028416 22.747136 132.144128 64.06144 180.542464C395.820032 808.868864 452.245504 836.096 512.498688 836.096c60.256256 0 116.67968-27.23328 158.886912-76.673024 41.314304-48.398336 64.067584-112.519168 64.067584-180.547584 0-68.027392-22.754304-132.145152-64.067584-180.543488C629.179392 348.886016 572.754944 321.652736 512.498688 321.652736L512.498688 321.652736zM512.498688 789.844992c-97.429504 0-176.702464-94.63808-176.702464-210.970624 0-116.332544 79.27296-210.971648 176.702464-210.971648 97.435648 0 176.702464 94.639104 176.702464 210.971648C689.201152 695.206912 609.93536 789.844992 512.498688 789.844992L512.498688 789.844992zM512.498688 789.844992M116.424704-68.727808c-0.892928 4.893696-21.103616 120.966144 58.790912 216.8832 66.341888 79.637504 179.893248 120.019968 337.503232 120.019968l0-46.253056c-78.189568 0-144.811008-10.5984-198.008832-31.505408-43.493376-17.09056-78.467072-41.2672-103.95136-71.86944-66.184192-79.44704-49.021952-177.928192-48.838656-178.917376L116.424704-68.727808 116.424704-68.727808zM116.424704-68.727808M908.573696-68.727808l-45.489152 8.358912 22.742016-4.176896-22.75328 4.11648c0.044032 0.252928 4.458496 25.74848 0.367616 60.7744-5.3504 45.863936-22.03648 85.789696-49.589248 118.674432-25.52832 30.473216-60.514304 54.551552-103.977984 71.564288-53.12512 20.79744-119.610368 31.33952-197.597184 31.33952L512.27648 268.17536c157.613056 0 271.164416-40.383488 337.50528-120.019968C929.678336 52.238336 909.473792-63.834112 908.573696-68.727808L908.573696-68.727808zM908.573696-68.727808"  horiz-adv-x="1024" />

    
    <glyph glyph-name="ziyuanku" unicode="&#59150;" d="M779.795 388.476h62.496l0.928 154.572-109.881 64.324v-84.566l47.159-26.188zM249.357 487.045v10.32l40.902 22.217v84.726l-100.703-57.339-0.948-157.527h60.082zM410.215 104.983v-73.321l0.022-0.554 103.147-45.031 102.752 43.761v74.985l-102.411-41.748zM368.667 658.525c0-78.807 63.885-142.694 142.694-142.694s142.694 63.885 142.694 142.694c0 78.807-63.885 142.694-142.694 142.694-78.807 0-142.694-63.885-142.694-142.694zM76.784 205.745c0-78.289 63.465-141.754 141.754-141.754s141.754 63.465 141.754 141.754c0 0 0 0 0 0 0 78.289-63.465 141.754-141.754 141.754-78.289 0-141.754-63.465-141.754-141.754 0 0 0 0 0 0zM668.881 203.163c0-78.289 63.465-141.754 141.754-141.754s141.754 63.465 141.754 141.754c0 78.289-63.465 141.754-141.754 141.754-78.289 0-141.754-63.465-141.754-141.754z"  horiz-adv-x="1024" />

    
    <glyph glyph-name="mulu" unicode="&#59154;" d="M40.421 675.16l943.158 0c22.339 0 40.421 18.082 40.421 40.421 0 22.312-18.082 40.421-40.421 40.421l-943.158 0c-22.339 0-40.421-18.109-40.421-40.421 0-22.339 18.082-40.421 40.421-40.421zM983.579 405.686l-943.158 0c-22.339 0-40.421-18.109-40.421-40.421s18.082-40.421 40.421-40.421l943.158 0c22.339 0 40.421 18.109 40.421 40.421s-18.082 40.421-40.421 40.421zM983.579 55.37l-943.158 0c-22.339 0-40.421-18.109-40.421-40.421s18.082-40.421 40.421-40.421l943.158 0c22.339 0 40.421 18.109 40.421 40.421s-18.082 40.421-40.421 40.421z"  horiz-adv-x="1024" />

    
    <glyph glyph-name="liuyan" unicode="&#59039;" d="M395.701 461.451c0-25.716-18.369-47.759-47.759-47.759-25.716 0-47.759 22.043-47.759 47.759 0 25.716 22.042 47.759 47.759 47.759 29.391 0 47.759-22.043 47.759-47.759v0zM943.095 487.167c0 198.385-183.69 360.032-411.465 360.032-231.449 0-415.138-161.647-415.138-360.032 0-117.562 66.129-227.775 176.341-293.903v-113.888c0-11.021 7.348-18.369 14.694-22.042 0 0 3.674 0 7.348 0 7.348 0 11.021 0 14.694 3.674l51.434 33.065c0 0 0 0 3.674 3.674l58.78 36.739c29.391-3.674 58.78-7.348 88.171-7.348 227.775 0 411.465 161.647 411.465 360.032v0zM325.898 222.654c-102.865 58.78-165.321 157.972-165.321 264.513 0 172.669 165.321 315.946 371.053 315.946 202.058 0 367.379-143.278 367.379-315.946 0-172.669-165.321-315.946-367.379-315.946-29.391 0-58.78 3.674-88.171 7.348-7.348 3.674-14.694 0-18.369 0l-69.801-47.759c0 0 0 0 0 0l-18.369-11.021v84.497c0 7.348-3.674 14.694-11.021 18.369v0zM586.737 472.47c0-25.716-22.042-47.759-47.759-47.759s-47.759 22.042-47.759 47.759c0 29.391 22.042 47.759 47.759 47.759 25.716 0 47.759-18.369 47.759-47.759v0zM770.428 472.47c0-25.716-18.369-47.759-47.759-47.759-25.716 0-47.759 22.042-47.759 47.759 0 29.391 22.042 47.759 47.759 47.759 29.391 0 47.759-18.369 47.759-47.759v0z"  horiz-adv-x="1071" />

    
    <glyph glyph-name="shangjiantou" unicode="&#58905;" d="M890.595556 221.108148 525.463704 573.724444c-1.232593 1.137778-2.56 2.085926-3.982222 2.939259-7.205926 4.361481-16.592593 3.508148-22.945185-2.56L133.404444 221.392593c-7.68-7.395556-7.774815-19.816296 0-27.306667 7.395556-7.205926 19.342222-6.826667 26.737778 0.379259l351.762963 339.626667c0 0 0 0 0.094815 0l352.047407-340.005926c7.395556-7.205926 19.342222-7.49037 26.737778-0.379259C898.37037 201.291852 898.275556 213.712593 890.595556 221.108148z"  horiz-adv-x="1024" />

    
    <glyph glyph-name="xiajiantou" unicode="&#58947;" d="M133.404444 546.891852l365.131852-352.616296c1.232593-1.137778 2.56-2.085926 3.982222-2.939259 7.205926-4.361481 16.592593-3.508148 22.945185 2.56l365.131852 352.616296c7.68 7.395556 7.774815 19.816296 0 27.306667-7.395556 7.205926-19.342222 6.826667-26.737778-0.379259l-351.762963-339.626667c0 0 0 0-0.094815 0L160.047407 573.819259c-7.395556 7.205926-19.342222 7.49037-26.737778 0.379259C125.62963 566.708148 125.724444 554.287407 133.404444 546.891852z"  horiz-adv-x="1024" />

    
    <glyph glyph-name="suiji-copy" unicode="&#58880;" d="M701.774 507.202h48.062v-78.023l134.724 137.236-134.724 134.272v-89.066h-48.062c-137.565 0-215.242-102.109-283.751-192.175-61.523-80.97-114.754-157.336-200.579-157.336h-78.005v-104.419h78.006c137.566 0 215.205 108.531 283.752 198.595 61.519 80.988 114.567 150.916 200.577 150.916v0zM341.038 447.498c5.821 7.586 11.787 15.334 17.789 23.248 14.626 19.138 29.907 39.422 46.571 59.542-49.263 46.023-108.602 80.006-187.954 80.006h-78.005v-104.402c0 0 22.122 0.983 78.006 0 54.063-1.166 87.972-23.268 123.593-58.395v0zM749.835 261.271h-48.062c-52.392 0-92.633 26.071-130.071 64.835-3.672-4.966-7.493-9.914-11.315-14.844-16.445-21.612-34.089-44.879-53.554-67.799 50.572-49.317 111.769-86.591 194.94-86.591h48.062v-89.558l134.724 134.254-134.724 137.237v-77.533zM749.835 261.271z"  horiz-adv-x="1024" />

    
    <glyph glyph-name="socialjavascript" unicode="&#59544;" d="M416 719.998l-160 0 0-424.996c0-105.16-36.064-134.522-98.824-134.522-29.41 0-55.896 5.042-76.5 12.126L64 48.192c29.4-10.124 74.518-16.192 109.814-16.192C317.91 32 416 99.742 416 293.96L416 719.998 416 719.998zM764.926 736C610.04 736 512 648.004 512 531.692c0-100.166 75.502-162.88 185.282-203.33 79.4-28.316 110.784-53.616 110.784-95.078 0-45.512-36.278-74.85-104.896-74.85-63.726 0-121.578 21.28-160.788 42.51l0 0.042L512 74.546c37.278-21.276 106.882-42.51 182.334-42.51C875.708 32.04 960 129.14 960 243.432c0 97.1-53.916 159.8-170.556 204.326-86.278 34.382-122.54 53.59-122.54 97.084 0 34.4 31.376 65.738 96.086 65.738 63.692 0 107.488-21.414 133.01-34.582l38.25 128C894.25 721.56 840.376 736 764.926 736L764.926 736z"  horiz-adv-x="1024" />

    
    <glyph glyph-name="gongju" unicode="&#59053;" d="M536.508695 380.962827 533.082666 389.090948 528.910647 385.681292ZM431.339424 346.30447 194.782753 346.30447c-21.871123 0-39.666418-17.796318-39.666418-39.667441l0-236.553601c0-21.87317 17.795295-39.667441 39.666418-39.667441l236.556671 0c21.871123 0 39.665395 17.794271 39.665395 39.667441L471.004819 306.637028C471.004819 328.508151 453.210547 346.30447 431.339424 346.30447zM430.205601 71.219297 195.9176 71.219297 195.9176 305.502182l234.288001 0L430.205601 71.219297zM192.211185 387.75758l236.557694 0c21.871123 0 39.665395 17.794271 39.665395 39.664372l0 236.557694c0 21.871123-17.794271 39.664372-39.665395 39.664372L192.211185 703.644017c-21.871123 0-39.664372-17.793248-39.664372-39.664372l0-236.557694C152.547837 405.551852 170.340061 387.75758 192.211185 387.75758zM193.349101 662.844799l234.284931 0 0-234.285954L193.349101 428.558845 193.349101 662.844799zM813.097104 348.872968 576.541457 348.872968c-21.862937 0-39.646975-17.794271-39.646975-39.665395l0-236.555647c0-21.871123 17.784038-39.665395 39.646975-39.665395l236.555647 0c21.881356 0 39.683814 17.794271 39.683814 39.665395L852.780919 309.207573C852.780919 331.078697 834.978461 348.872968 813.097104 348.872968zM811.980677 73.786773 577.69677 73.786773 577.69677 308.072727l234.283908 0L811.980677 73.786773zM859.52553 581.672058 720.943264 720.254324c-7.087419 7.064906-16.504906 10.956539-26.51591 10.956539-10.008958 0-19.422352-3.891633-26.5374-10.981099L529.377274 581.696618c-7.110955-7.089465-11.026124-16.522302-11.026124-26.561959s3.91517-19.473517 11.000542-26.536376l138.539286-138.559752c7.080256-7.080256 16.501836-10.980076 26.529213-10.980076 10.016121 0 19.436678 3.891633 26.547633 10.980076L859.550089 528.619772C874.147552 543.26226 874.136296 567.060269 859.52553 581.672058zM694.429401 424.58637 563.900555 555.134659 694.429401 685.681924l130.547265-130.547265L694.429401 424.58637z"  horiz-adv-x="1024" />

    
    <glyph glyph-name="shijian" unicode="&#58979;" d="M512 832C256 832 51.2 624 51.2 371.2s208-460.8 460.8-460.8 460.8 208 460.8 460.8S768 832 512 832z m0-876.8C284.8-44.8 99.2 140.8 99.2 368S284.8 780.8 512 780.8 924.8 595.2 924.8 368 742.4-44.8 512-44.8zM809.6 352H531.2V633.6c0 12.8-9.6 22.4-22.4 22.4-12.8 0-22.4-9.6-22.4-22.4v-307.2c0-12.8 9.6-22.4 22.4-22.4h300.8c12.8 0 22.4 9.6 22.4 22.4 0 16-9.6 25.6-22.4 25.6z"  horiz-adv-x="1024" />

    
    <glyph glyph-name="yingxiongbang" unicode="&#58891;" d="M900.22 842.453l-110.866-223.49c-93.885 90.31-252.825 99.863-252.825 99.863l74.23 146.208c3.06 12.03 13.477 21.12 26.468 21.12h240.8c15.366 0 27.817-12.44 27.817-27.79 0-6.05-2.335-11.353-5.624-15.911z m3.196-569.604c0-214.853-174.367-389.036-389.455-389.036-215.087 0-389.449 174.183-389.449 389.036 0 214.863 174.362 389.039 389.45 389.039 215.087 0 389.454-174.176 389.454-389.04zM696.39 362.354l-106.116 15.41-47.464 96.055c-16.245 32.884-41.76 32.25-57.689 0l-47.462-96.056-106.116-15.409c-36.329-5.267-43.607-29.708-17.83-54.807l76.788-74.77L372.378 127.2c-6.211-36.147 14.806-50.609 46.668-33.878l94.915 49.85 94.915-49.85c32.499-17.066 52.766-1.564 46.677 33.878l-18.13 105.577 76.793 74.77c26.286 25.596 17.794 49.642-17.827 54.807zM123.779 842.447c-3.282 4.564-5.625 9.868-5.625 15.917 0 15.35 12.455 27.79 27.82 27.79h240.8c12.99 0 23.409-9.09 26.467-21.12l74.23-146.208s-158.938-9.552-252.821-99.863L123.78 842.447z"  horiz-adv-x="1024" />

    
    <glyph glyph-name="file-css" unicode="&#59020;" d="M834.448 724.362c-39.411 0-71.655 32.245-71.655 71.655V831.845H225.379c-39.411 0-71.655-32.245-71.655-71.655v-752.38c0-39.411 32.245-71.655 71.655-71.655H798.62c39.411 0 71.655 32.245 71.655 71.655V724.362h-35.827zM412.787 483.803c-20.009 11.087-42.005 16.633-65.987 16.633-31.218 0-56.651-10.397-76.298-31.19-19.643-20.789-29.467-48.842-29.467-84.16 0-33.505 9.157-60.112 27.48-79.817 18.319-19.708 42.305-29.561 71.955-29.561 27.72 0 51.824 6.265 72.317 18.802v-34.71c-20.61-10.848-46.462-16.271-77.558-16.271-40.14 0-72.199 12.745-96.181 38.239-23.986 25.49-35.98 59.206-35.98 101.15 0 45.08 13.496 81.36 40.497 108.841 26.997 27.48 61.291 41.221 102.869 41.221 26.757 0 48.875-3.799 66.353-11.392v-37.785z m188.385-220.566c-17.84-13.139-42.606-19.708-74.308-19.708-11.087 0-24.015 1.536-38.779 4.611-14.764 3.071-25.522 6.899-32.27 11.481v41.221c8.556-7.475 20.005-13.622 34.35-18.445 14.341-4.818 27.96-7.232 40.859-7.232 39.291 0 58.938 13.984 58.938 41.944 0 7.837-2.109 14.886-6.326 21.155-4.221 6.265-10.007 11.81-17.356 16.633-7.354 4.818-21.155 12.233-41.403 22.235-28.086 13.984-46.583 26.968-55.501 38.962-8.922 11.993-13.383 25.701-13.383 41.131 0 23.259 9.34 41.7 28.025 55.322 18.68 13.618 42.244 20.432 70.692 20.432 27.838 0 48.269-3.376 61.286-10.124v-39.417c-16.877 11.693-38.21 17.539-64 17.539-17.116 0-31.068-3.587-41.854-10.758-10.787-7.171-16.178-17.145-16.178-29.922 0-11.327 3.734-20.549 11.205-27.659 7.475-7.114 23.686-16.812 48.635-29.106 27.48-13.139 46.705-26.278 57.671-39.417 10.969-13.135 16.454-27.903 16.454-44.292 0-24.588-8.922-43.451-26.757-56.586z m213.696 0c-17.84-13.139-42.606-19.708-74.308-19.708-11.087 0-24.015 1.536-38.779 4.611-14.764 3.071-25.522 6.899-32.27 11.481v41.221c8.556-7.475 20.005-13.622 34.35-18.445 14.341-4.818 27.96-7.232 40.859-7.232 39.291 0 58.938 13.984 58.938 41.944 0 7.837-2.109 14.886-6.326 21.155-4.221 6.265-10.007 11.81-17.356 16.633-7.354 4.818-21.155 12.233-41.403 22.235-28.086 13.984-46.583 26.968-55.501 38.962-8.922 11.993-13.383 25.701-13.383 41.131 0 23.259 9.34 41.7 28.025 55.322 18.68 13.618 42.244 20.432 70.692 20.432 27.838 0 48.269-3.376 61.286-10.124v-39.417c-16.877 11.693-38.21 17.539-64 17.539-17.116 0-31.068-3.587-41.854-10.758-10.787-7.171-16.178-17.145-16.178-29.922 0-11.327 3.734-20.549 11.205-27.659 7.475-7.114 23.686-16.812 48.635-29.106 27.48-13.139 46.705-26.278 57.671-39.417 10.969-13.135 16.454-27.903 16.454-44.292 0-24.588-8.922-43.451-26.757-56.586z"  horiz-adv-x="1024" />

    
    <glyph glyph-name="html" unicode="&#59027;" d="M113.719 832.132l70.806-803.643 325.705-92.047 322.165 92.047 77.886 803.643H113.719z m637.25-265.521h-378.81l10.621-102.668h361.108L715.566 163.02 513.77 106.375l-201.796 53.104-17.701 155.772h99.128l7.081-77.886 113.289-31.862 109.749 31.862 14.161 127.45-346.947 3.54-28.322 293.843h499.179l-10.622-95.587z"  horiz-adv-x="1024" />

    
    <glyph glyph-name="zuozhe" unicode="&#58900;" d="M247.991 584.181c0-137.159 118.423-248.201 264.358-248.201 145.988 0 264.465 111.042 264.465 248.201 0 136.993-118.477 248.091-264.465 248.091-145.935-0.001-264.358-111.098-264.358-248.091zM512.35-64.682H97.74c4.479 207.288 190.322 381.368 414.609 381.368 227.562 0 414.715-171.084 414.715-381.368H512.35z"  horiz-adv-x="1024" />

    
    <glyph glyph-name="zuzhijiagoujiekou" unicode="&#59546;" d="M256 256h-64V448h288V576h64v-128h288v-192h-64V384H544v-128h-64V384H256v-128z m256 384c52.8 0 96 43.2 96 96S564.8 832 512 832s-96-43.2-96-96 43.2-96 96-96z m0-448c-52.8 0-96-43.2-96-96s43.2-96 96-96 96 43.2 96 96-43.2 96-96 96z m-288 0c-52.8 0-96-43.2-96-96s43.2-96 96-96 96 43.2 96 96-43.2 96-96 96z m576 0c-52.8 0-96-43.2-96-96s43.2-96 96-96 96 43.2 96 96-43.2 96-96 96z"  horiz-adv-x="1024" />

    
    <glyph glyph-name="qinggan" unicode="&#58903;" d="M476.7 402.4c27.2 77.9 100.6 130.1 183.3 130.1 21.2 0 42.1-3.5 62.3-10.3 34.8-11.8 64.6-32.6 87-59.6 14 3.2 28.4 4.8 43.1 4.8 2.2 0 4.3 0 6.5-0.1C870.2 576.2 837 646.2 837 646.2 790.3 756.3 663.1 807.7 552.9 761.1 475.5 728.4 427.1 656 421.2 577.7 360.8 628 275 643.6 197.7 610.9 87.5 564.2 36 437.2 82.7 327.1c0 0 49.5-140.3 231.4-211.3 111.4-43.5 208.2-65.2 269.6-75.8-23.2 29.4-55.8 75.4-86.2 135-57.5 113-28.4 207-20.8 227.4z m412.2-20.9c-41.9 14.2-86.3 2.7-116-26.1-6.1 40.9-34.4 77-76.3 91.2-59.6 20.1-124.4-11.8-144.6-71.4 0 0-29.7-72.5 16.9-164 33.4-65.5 69.3-112.3 88.9-135.5 9-10.6 23.1-15.1 36.6-11.8 31.4 7.7 92.4 25.1 153.1 55.2C939.1 164.7 960.4 237 960.4 237c20.2 59.6-11.8 124.3-71.5 144.5z"  horiz-adv-x="1024" />

    
    <glyph glyph-name="web__xinshou" unicode="&#58955;" d="M938.678 744.398v4.321c0 0.858-0.863 1.722-0.863 2.587v1.726c0 0.858-0.864 1.722-0.864 2.587 0 0 0 0.863-0.858 0.863l-2.592 2.587c-0.864 0.864-1.722 1.729-3.45 2.592 0 0-0.864 0-0.864 0.864-0.864 0.863-1.729 0.863-2.587 1.721-0.863 0-0.863 0-1.727 0.864-0.863 0-1.728 0.864-2.592 0.864H911.932c-0.864 0-0.864 0-1.729-0.864-0.864 0-1.728-0.864-2.592-0.864L94.715 383.69c-8.633-4.314-12.948-12.948-12.084-21.578 0.864-8.627 7.769-16.397 17.262-18.983l309.799-67.308c1.722 0 3.45-0.864 4.313-0.864 5.18 0 10.356 1.723 14.67 5.18l465.992 415.076-11.22-518.631-358.123 100.962c-11.218 3.456-23.296-3.45-26.747-14.67-3.455-11.214 3.45-23.298 14.67-26.747l75.073-21.575-144.109-167.413V218.862c0 12.084-9.492 21.575-21.575 21.575-12.078 0-21.576-9.492-21.576-21.575v-229.543c0-8.628 5.177-17.262 13.81-19.848 2.588-0.864 5.18-1.728 7.766-1.728 6.041 0 12.084 2.592 16.397 7.769l190.71 220.914c1.729 1.722 2.588 4.314 3.451 6.043l264.925-75.08c1.728-0.862 4.32-0.862 6.043-0.862 4.313 0 9.492 1.726 12.947 4.313 5.172 4.314 8.629 10.356 8.629 17.262l12.94 596.296zM407.965 319.83l-236.45 51.776L792.841 662.42 407.965 319.83z m0 0"  horiz-adv-x="1024" />

    
    <glyph glyph-name="tongji" unicode="&#59057;" d="M128 799.392h64v-767.424h703.52v-63.968h-767.52v831.392zM415.808 479.616v-415.68h-191.872v223.84l191.872 191.84zM671.616 447.68v-383.744h-191.872v415.68l95.936-127.872 95.936 95.936zM895.488 633.568v-569.664h-159.872v415.712l159.872 153.952zM255.936 415.68l-32 32 223.84 223.84 127.904-127.936 223.872 191.872-64 63.968h159.936v-159.904l-64 63.968-255.808-223.872-127.904 127.936-191.84-191.872z"  horiz-adv-x="1024" />

    
    <glyph glyph-name="jiantou" unicode="&#58898;" d="M511.31 226.6a61.19 61.19 0 0 0-43.25 17.79l-237.12 237.2a35 35 0 0 0 49.55 49.55l230.89-230.9 230.9 230.89a35 35 0 1 0 49.55-49.55L554.7 244.46a61.41 61.41 0 0 0-43.39-17.86z"  horiz-adv-x="1024" />

    
    <glyph glyph-name="menu2" unicode="&#58889;" d="M918.507 452.053H104.64c-37.547 0-68.16-30.72-68.16-68.16 0-37.546 30.72-68.16 68.16-68.16h813.867c37.546 0 68.16 30.72 68.16 68.16s-30.72 68.16-68.16 68.16z m-0.32-306.88H104.32c-37.547 0-68.16-30.72-68.16-68.16 0-37.546 30.72-68.16 68.16-68.16h813.867c37.546 0 68.16 30.72 68.16 68.16 0 37.547-30.614 68.16-68.16 68.16z m1.066 610.667H105.387c-37.547 0-68.16-30.72-68.16-68.16 0-37.547 30.72-68.16 68.16-68.16h813.866c37.547 0 68.16 30.72 68.16 68.16 0 37.547-30.72 68.16-68.16 68.16z"  horiz-adv-x="1024" />

    
    <glyph glyph-name="zuixin" unicode="&#59106;" d="M421.4-64S34.1 23.4 207.2 457.2c0 0 39.3-48.2 33.9-71.4 0 0 30.8 109.5 97.3 174.9C395.5 616.9 453.5 774.9 400 832c0 0 265-57.1 294.5-342.7 0 0 33.9 91 103.5 100 0 0-21.4-50 0-125 0 0 219.5-385.5-158.8-515.8 0 0 113.4 132.1-127.1 358.8 0 0-56.7-121.4-90.6-164.2-0.1-0.1-94.7-108.9-0.1-207.1z"  horiz-adv-x="1024" />

    
    <glyph glyph-name="pinglun3" unicode="&#58892;" d="M302.763532 440.274281m-51.928122 0a51.928123 51.928123 0 1 1 103.856245 0 51.928123 51.928123 0 1 1-103.856245 0ZM510.024474 440.274281m-51.928123 0a51.928123 51.928123 0 1 1 103.856245 0 51.928123 51.928123 0 1 1-103.856245 0ZM721.349355 440.274281m-51.928123 0a51.928123 51.928123 0 1 1 103.856246 0 51.928123 51.928123 0 1 1-103.856246 0ZM660.954691-8.90398c-2.935068 0-5.870136 0.564436-8.692316 1.693309-8.579429 3.499504-14.110903 11.853158-14.110903 21.10991v101.259839c0 12.643369 10.272737 22.803219 22.803219 22.803219 12.643369 0 22.803219-10.272737 22.803219-22.803219v-46.057987l62.20086 62.20086c4.289714 4.289714 10.046963 6.660346 16.142873 6.660346H860.200639c30.028001 0 54.411641 24.38364 54.411642 54.411642V664.806967c0 30.028001-24.38364 54.411641-54.411642 54.411642H165.831331c-30.028001 0-54.411641-24.38364-54.411642-54.411642v-472.433028c0-30.028001 24.38364-54.411641 54.411642-54.411642h362.59376c12.643369 0 22.803219-10.272737 22.803219-22.803219s-10.272737-22.803219-22.803219-22.803219H165.831331c-55.201852 0-100.130967 44.929115-100.130967 100.130967V664.806967c0 55.201852 44.929115 100.130967 100.130967 100.130967H860.200639c55.201852 0 100.130967-44.929115 100.130967-100.130967v-472.433028c0-55.201852-44.929115-100.130967-100.130967-100.130967h-88.503582l-94.599493-94.599493c-4.402602-4.289714-10.15985-6.547459-16.142873-6.547459z"  horiz-adv-x="1024" />

    
    <glyph glyph-name="yongxinfuwu" unicode="&#59228;" d="M513.9 20.3l-11.5 7.2c-1.5 1-38.1 24-92 66.2-49.7 38.9-124 102.1-195.9 182.3-65.5 73.1-102.9 139-114.3 201.5-11.4 62.6 5.2 111 21 146.1 39.4 87.9 145.5 136.3 264.2 120.6 113.1-15 197.4-129.9 259-213.8 4.8-6.6 9.5-13 14.1-19.1 7-9.4 5-22.6-4.4-29.6s-22.6-5-29.6 4.4c-4.6 6.2-9.3 12.6-14.2 19.3-57 77.7-135.2 184.2-230.4 196.9-99.9 13.3-188.3-25.3-220-96-32-71.3-43.6-157.2 86.2-302.1 112-124.9 230.9-208.8 267.5-233.4 44.4 30.5 206.6 145.6 277.7 248.5 90 130.2 119.7 199.4 70.9 291-36.5 68.5-102.1 87.5-138 92.8-50.8 7.5-102.7-4-126.4-27.8-8.2-8.3-21.6-8.3-29.9-0.1-8.3 8.2-8.3 21.6-0.1 29.9 33.5 33.8 97.3 49.4 162.5 39.8 34.2-5 66.8-16.9 94.5-34.4 31.8-20.1 56.9-47.2 74.6-80.3 29.9-56.1 36-108.9 19.2-166.1-14.8-50.4-46.4-102-92.6-168.8-36.8-53.2-98.7-114.4-183.9-182-63-50-114.6-84.1-116.8-85.5l-11.4-7.5z"  horiz-adv-x="1024" />

    
    <glyph glyph-name="tongjibaobiao" unicode="&#58901;" d="M132.154 4.154V818.109H77.888v-868.22h868.22v54.266zM230.593 324.756c7.084-7.065 18.529-7.065 25.561 0l166.309 166.291 166.269-166.291c1.767-1.765 3.818-3.109 5.988-3.956 6.553-2.65 14.307-1.345 19.59 3.956L795.826 506.29l93.777-93.776v272.5H617.118l101.975-101.991-117.571-117.571-166.273 166.291c-0.3 0.284-0.688 0.389-0.989 0.653-3.41 2.969-7.559 4.646-11.817 4.627a18.061 18.061 0 0 1-12.804-5.3L179.442 401.51c-7.065-7.065-7.065-18.513 0-25.578l51.153-51.172zM230.593 270.491l-29.834 29.852v-262.628h90.438V305.536l-35.045-35.045c-7.03-7.065-18.478-7.065-25.561 0zM350.356 364.675v-326.959h90.441V418.445l-18.334 18.335zM499.969 359.236v-321.521h90.438V269.36c-0.529 0.425-1.183 0.637-1.678 1.13l-88.762 88.745zM649.565 305.747v-268.032h90.438v358.49l-74.542-74.561zM889.601 37.716v320.53l-90.441 90.438v-410.969z"  horiz-adv-x="1024" />

    
    <glyph glyph-name="xinqingbuhao" unicode="&#58984;" d="M530-22c-3.2 0-6.8 0.8-9.6 2.4C344 78.4 188 255.6 181.6 262.8l-0.8 0.8c-50.8 64.8-103.6 165.6-66 277.6 22.4 67.2 66.8 106.4 68.8 108 0.4 0.4 0.8 0.8 1.2 0.8 106 78.8 198 74.4 256.4 56.8 41.6-12.4 72.4-33.2 88.8-46.4 16.8 13.2 47.2 33.6 88.8 46.4 58.4 17.6 150.4 22 256.4-56.8 0.4-0.4 0.8-0.4 1.2-0.8 2-1.6 46.4-40.4 68.8-108 20.8-62 26-160.4-66-277.6l-0.8-0.8c-6.4-7.6-162.4-184.8-338.8-282.4-2.8-1.6-6.4-2.4-9.6-2.4zM212 288.8c8-9.2 155.6-174.8 318-268 162.4 93.2 310 258.8 318 268 64.8 82.8 84.8 163.6 59.2 240-18 53.6-52 86-56.4 90-174.8 129.6-301.2 6.8-306.8 1.6-3.6-3.6-8.8-6-14-6-5.2 0-10.4 2-14 6-5.2 5.2-131.6 128-306.8-1.6-10.8-9.6-147.2-138.4 2.8-330zM150 760c-3.2 0-6.4 0.8-9.2 2.8l-32 22.4c-7.2 5.2-8.8 15.2-4 22.4s15.2 8.8 22.4 4l32-22.4c7.2-5.2 8.8-15.2 4-22.4-3.2-4.4-8-6.8-13.2-6.8zM150 714c-1.6 0-3.2 0.4-4.8 0.8L27.2 752.8c-8.4 2.8-13.2 11.6-10.4 20 2.8 8.4 11.6 13.2 20 10.4l118-38c8.4-2.8 13.2-11.6 10.4-20-2-6.8-8.4-11.2-15.2-11.2zM982 18c-2 0-4.4 0.4-6.4 1.2l-80 34c-8 3.6-12 12.8-8.4 20.8 3.6 8 12.8 12 20.8 8.4l80-34c8-3.6 12-12.8 8.4-20.8-2.4-6-8-9.6-14.4-9.6zM982-64c-2.4 0-4.8 0.4-7.2 1.6l-114 58c-8 4-11.2 13.6-7.2 21.6 4 8 13.6 11.2 21.6 7.2l114-58c8-4 11.2-13.6 7.2-21.6-2.8-5.6-8.4-8.8-14.4-8.8zM814 454c-9.2 0-17.6 6.4-19.6 16-5.6 26.8-17.6 46.4-37.2 59.2-40 26.4-98.8 15.6-99.2 15.2-10.8-2.4-21.2 4.8-23.6 15.6-2.4 10.8 4.8 21.2 15.6 23.6 3.2 0.8 74.8 14.8 129.2-21.2 28.4-18.8 46.8-47.2 54.4-84.4 2.4-10.8-4.8-21.2-15.6-23.6-1.2-0.4-2.8-0.4-4-0.4z"  horiz-adv-x="1024" />

    
    <glyph glyph-name="rili1" unicode="&#59251;" d="M883.5 612.6v-571.5c0-15.5-5.6-28.8-17-40.2-11.3-11.3-24.7-17-40.2-17H197.7c-15.5 0-28.8 5.6-40.2 17-11.4 11.3-17 24.7-17 40.2V612.6c0 15.5 5.6 28.8 17 40.2 11.3 11.3 24.7 17 40.2 17h57.2v42.8c0 19.6 6.9 36.4 20.9 50.4s30.8 20.9 50.4 20.9h28.5c19.6 0 36.4-7 50.4-20.9 14-14 20.9-30.8 20.9-50.4v-42.8h171.5v42.8c0 19.6 6.9 36.4 20.9 50.4s31 21 50.6 21h28.5c19.6 0 36.4-7 50.4-20.9 14-14 20.9-30.8 20.9-50.4v-42.8H826c15.5 0 28.8-5.6 40.2-17 11.6-11.4 17.3-24.8 17.3-40.3zM197.7 369.7h128.5V498.4H197.7v-128.7z m0-171.3h128.5V341.2H197.7v-142.8z m0-157.2h128.5V169.7H197.7v-128.5z m171.4 542.9V712.6c0 3.8-1.4 7.2-4.2 10s-6.2 4.2-10 4.2h-28.5c-3.8 0-7.2-1.4-10-4.2-2.8-2.8-4.2-6.2-4.2-10v-128.5c0-3.8 1.4-7.2 4.2-10 2.8-2.8 6.2-4.2 10-4.2h28.5c3.8 0 7.2 1.4 10 4.2 2.8 2.8 4.2 6.1 4.2 10z m-14.3-214.4h142.9V498.4H354.8v-128.7z m0-171.3h142.9V341.2H354.8v-142.8z m0-157.2h142.9V169.7H354.8v-128.5z m171.5 328.5h142.9V498.4H526.3v-128.7z m0-171.3h142.9V341.2H526.3v-142.8z m0-157.2h142.9V169.7H526.3v-128.5zM712 584.1V712.6c0 3.8-1.4 7.2-4.2 10s-6.2 4.2-10 4.2h-28.5c-3.8 0-7.2-1.4-10-4.2s-4.2-6.2-4.2-10v-128.5c0-3.8 1.4-7.2 4.2-10s6.2-4.2 10-4.2h28.5c3.8 0 7.2 1.4 10 4.2 2.8 2.8 4.2 6.1 4.2 10z m-14.3-214.4h128.5V498.4H697.7v-128.7z m0-171.3h128.5V341.2H697.7v-142.8z m0-157.2h128.5V169.7H697.7v-128.5z"  horiz-adv-x="1024" />

    
    <glyph glyph-name="guanbi3" unicode="&#58888;" d="M891.264-5.248a30.784 30.784 0 0 0-21.76 9.024L128.256 745.024a30.72 30.72 0 1 0 43.52 43.52l741.312-741.312a30.848 30.848 0 0 0-21.824-52.48M150.016-5.248a30.72 30.72 0 0 0-21.76 52.544l741.312 741.248a30.784 30.784 0 0 0 43.456-43.52L171.776 3.776a30.72 30.72 0 0 0-21.76-9.024"  horiz-adv-x="1024" />

    
    <glyph glyph-name="damuzhi1" unicode="&#58985;" d="M693.07 606.048v-0.17l0.257 4.69-0.256-4.605z m309.823-164.932c-32.406 58.844-82.04 92.103-149.581 95.343-40.934 1.877-81.869 0.683-122.889 0.853l-5.543 0.17c0 0.939 0 1.45 0.17 1.962a778.607 778.607 0 0 1 11.855 88.35c2.302 28.143 3.837 56.37 4.35 84.598 0.425 24.39 2.728 48.866-0.854 73a121.95 121.95 0 0 1-69.247 96.281c-43.408 21.405-86.56 18.591-127.238-7.59-30.274-19.444-48.61-47.757-55.432-83.233-2.985-15.095-2.303-30.275-2.303-45.54 0.171-40.508-7.334-79.566-26.266-115.469-49.121-92.87-126.64-141.224-232.217-143.185-40.764-0.768-81.613-0.17-122.462-0.085-12.11 0-23.964-1.45-35.392-5.458C26.437 465.763 0 428.239 0 381.932v-404.483c0-13.9 1.876-27.46 7.42-40.082 17.055-38.888 46.648-61.913 89.288-63.704 44.09-1.876 88.35-0.597 132.525-0.682 4.264 0 8.528 0.597 12.28 2.558 10.66 5.714 14.498 14.924 14.498 26.437-0.086 173.46 0 346.92 0 520.293 0 4.69-1.962 10.831 0.852 13.645 2.388 2.559 8.528 1.535 12.963 2.218a303.682 303.682 0 0 1 131.075 49.462 304.45 304.45 0 0 1 120.672 157.768c11.939 34.965 16.373 70.953 15.862 107.709-0.086 8.784-0.341 17.567 0.853 26.351a76.752 76.752 0 0 0 152.566-13.218c-0.086-45.71-1.28-91.335-5.288-136.875-3.155-36.67-6.822-73.34-18.761-108.561a25.072 25.072 0 0 1-0.939-13.56c2.815-13.048 12.793-20.637 27.29-20.723 49.377-0.17 98.584-0.511 147.876-0.597 16.885-0.085 33.43-1.705 49.292-7.93a128.346 128.346 0 0 0 76.41-156.575c-7.845-26.863-17.056-53.3-26.522-79.651-32.918-92.103-68.735-183.097-104.297-274.176a65.24 65.24 0 0 0-24.134-29.25c-15.692-11.258-33.686-14.157-52.448-14.157H388.536c-2.388 0-4.776 0-7.164-0.256a25.413 25.413 0 0 1-19.273-38.717c5.8-9.381 14.839-12.28 25.584-12.28 124.594 0.17 249.274 0.085 373.868 0.085 30.7 0 58.843 7.845 83.489 26.607 16.032 12.195 29.507 26.693 37.011 45.966 13.645 34.965 27.46 69.93 41.02 105.065a5069.898 5069.898 0 0 1 85.28 232.218c6.993 20.978 13.474 42.213 14.668 64.471a171.498 171.498 0 0 1-20.126 93.808zM199.214-76.022c-31.468 0.17-62.937 0-94.49 0.085-31.213 0-53.556 22.003-53.556 53.13v405.08c0 30.616 22.002 52.874 52.703 53.044 32.15 0.256 64.301 0 96.452 0.17 4.434 0 4.35-1.96 4.35-5.116v-250.723l0.084-250.297c0-4.605-1.194-5.373-5.543-5.373z"  horiz-adv-x="1024" />

    
    <glyph glyph-name="jiantou-you-cuxiantiao-fill" unicode="&#59054;" d="M0 384c0-283.733333 228.266667-512 512-512s512 228.266667 512 512S795.733333 896 512 896 0 667.733333 0 384zM405.333333 689.066667l275.2-275.2c8.533333-8.533333 12.8-19.2 10.666667-29.866667 0-10.666667-4.266667-21.333333-10.666667-29.866667L405.333333 78.933333c-14.933333-14.933333-40.533333-14.933333-55.466666 0l-4.266667 4.266667c-14.933333 14.933333-14.933333 40.533333 0 55.466667L588.8 384 343.466667 629.333333c-14.933333 14.933333-14.933333 40.533333 0 55.466667l4.266666 4.266667c14.933333 14.933333 40.533333 14.933333 57.6 0z"  horiz-adv-x="1024" />

    
    <glyph glyph-name="zuijin" unicode="&#59001;" d="M576.256-128L458.24 330.112 0 447.744 1024 896 576.256-128z m-386.56 591.104l319.488-82.048 82.304-319.488L903.68 775.68 189.696 463.104z"  horiz-adv-x="1024" />

    
    <glyph glyph-name="biaoqian" unicode="&#58883;" d="M552.2 896L0.2 344l471.9-472 552 552.1V896H552.2z m439.2-458.4L472.1-81.6 46.7 344 565.8 863.2h425.6v-425.6zM232.1 302.3l26.5 23.1 168.6-193.3-26.6-23.1-168.5 193.3zM448.5 79.3c0-14.7 11.9-26.7 26.7-26.7 14.7 0 26.7 11.9 26.7 26.7 0 14.7-11.9 26.7-26.7 26.7-14.8 0-26.7-11.9-26.7-26.7zM806.1 608.5c45.2 0 82 36.8 82 82s-36.8 82-82 82-82-36.8-82-82 36.7-82 82-82z m0 131.3c27.2 0 49.2-22.1 49.2-49.2s-22.1-49.2-49.2-49.2c-27.2 0-49.2 22.1-49.2 49.2s22.1 49.2 49.2 49.2z"  horiz-adv-x="1024" />

    
    <glyph glyph-name="guanbi" unicode="&#58885;" d="M566.613333 384l279.893334 279.893333c13.653333 13.653333 13.653333 34.133333 0 47.786667-13.653333 13.653333-34.133333 13.653333-47.786667 0l-286.72-273.066667-273.066667 273.066667c-13.653333 13.653333-34.133333 13.653333-47.786666 0-13.653333-13.653333-13.653333-34.133333 0-47.786667l279.893333-279.893333-279.893333-279.893333c-13.653333-13.653333-13.653333-34.133333 0-47.786667 13.653333-13.653333 34.133333-13.653333 47.786666 0l279.893334 279.893333 279.893333-279.893333c13.653333-13.653333 34.133333-13.653333 47.786667 0 13.653333 13.653333 13.653333 34.133333 0 47.786667L566.613333 384z m0 0"  horiz-adv-x="1030" />

    
    <glyph glyph-name="leimupinleifenleileibie" unicode="&#58881;" d="M369.40572214 754.78857422H255.27236413C192.55695295 754.78857422 141.21142578 703.44304705 141.21142578 640.72763587V526.6666975c0-62.71541119 51.34552718-114.06093836 114.06093836-114.06093836H369.3333025c62.71541119 0 114.06093836 51.34552718 114.06093836 114.06093836V640.72763587C483.4666605 703.44304705 432.12113332 754.78857422 369.40572214 754.78857422z m399.32191373 0H654.59427786c-62.71541119 0-114.06093836-51.34552718-114.06093836-114.06093836V526.6666975c0-62.71541119 51.34552718-114.06093836 114.06093836-114.06093836h114.06093835c62.71541119 0 114.06093836 51.34552718 114.06093837 114.06093836V640.72763587C882.78857422 703.44304705 831.44304705 754.78857422 768.72763587 754.78857422zM369.40572214 355.4666605H255.27236413C192.55695295 355.4666605 141.21142578 304.12113332 141.21142578 241.40572213999997v-114.06093835C141.21142578 64.55695294999998 192.55695295 13.211425780000013 255.27236413 13.211425780000013H369.3333025c62.71541119 0 114.06093836 51.34552718 114.06093836 114.06093836V241.40572213999997c0.07241965 62.71541119-51.27310752 114.06093836-113.98851872 114.06093836z m399.32191373 0H654.59427786c-62.71541119 0-114.06093836-51.34552718-114.06093836-114.06093836v-114.06093835c0-62.71541119 51.34552718-114.06093836 114.06093836-114.06093837h114.06093835c62.71541119 0 114.06093836 51.34552718 114.06093837 114.06093837V241.40572213999997c0.07241965 62.71541119-51.27310752 114.06093836-113.98851872 114.06093836z"  horiz-adv-x="1024" />

    
    <glyph glyph-name="kanguo" unicode="&#58980;" d="M1016.7 409.7c-56.9 92.1-258.4 331-504.6 331S64.4 501.8 7.5 409.7c-9.8-15.9-9.8-35.7 0-51.6 56.8-92 258.3-330.9 504.6-330.9s447.7 238.9 504.6 331c9.7 15.8 9.7 35.6 0 51.5zM512.1 92.6c-231.8 0-409.7 242.4-443.2 291.3 33.5 49 211.5 291.3 443.2 291.3s409.7-242.4 443.2-291.3c-33.6-49-211.5-291.3-443.2-291.3zM512.1 607.8c-123.4 0-223.8-100.4-223.8-223.8s100.4-223.8 223.8-223.8S735.9 260.6 735.9 384 635.5 607.8 512.1 607.8z m0-382.3c-87.3 0-158.4 71-158.4 158.4s71.1 158.4 158.4 158.4c87.3 0 158.4-71.1 158.4-158.4s-71.1-158.4-158.4-158.4z"  horiz-adv-x="1024" />

    
    <glyph glyph-name="damuzhi" unicode="&#58884;" d="M925.92001953 491.73544922c-34.19472656 44.76357422-93.89794922 51.96357422-164.17089844 51.96357422-19.096875 0-38.95839844-0.52910156-59.32089843-0.984375 1.97402344 22.99482422 3.94892578 45.98964844 5.91767578 68.97919922 17.81982422 112.56152344-5.709375 203.68652344-96.20419922 220.42089843C605.18779297 833.40410156 597.65029297 834 590.04511719 834c-16.9875 0-34.27910156-2.97597656-45.98964844-7.875-44.83652344-18.759375-59.06777344-62.71347656-68.08535156-118.46777344-5.38857422-33.26660156 4.36464844-71.08857422-2.95839844-100.4625-9.29267578-37.28847656-37.52402344-64.97402344-66.60527344-82.46777343-35.02705078-21.08232422-80.26347656-33.946875-127.28847656-41.98535157-12.30205078-2.109375-25.36347656-2.82392578-38.71669922-2.82392578-28.53544922 0-58.42089844 3.27392578-85.09482422 3.27392578-37.02919922 0-67.88232422-6.30527344-80.4375-36.43857422-11.37392578-27.29794922-4.43847656-80.21777344-4.43847656-115.46455078v-268.40830078c-0.00527344-50.990625-3.571875-94.08427734 25.15517578-115.45927734C109.95751953-63.27714844000002 149.21386719-66 191.19921875-66c41.78847656 0 86.27080078 2.7 111.60527344 2.925l76.95527343 0.00527344c117.41044922 1.49589844 234.86044922 2.99267578 352.26562501 4.49472656 23.69794922 6.98027344 55.05732422 34.83544922 68.08535156 53.97714844 62.2125 91.42294922 124.80205078 243.00527344 146.53125 322.396875 16.85302734 61.57177734 10.17597656 133.48740234-20.72197266 173.93642578z m-43.81347656-155.80634766c-19.10830078-69.79482422-49.86035156-143.465625-86.59160156-207.43330078-8.70205078-15.14267578-15.63222656-29.85205078-22.34267579-44.07714844-7.98222656-15.6375-43.12089844-72.50625-55.884375-75.32402343-96.74472656-1.2375-193.50527344-2.475-290.26142578-3.70722657l-47.68857421-0.60732422-76.53955079-0.00527343h-0.28652343l-0.29267578-0.00527344c-4.03857422-0.03339844-8.409375-0.12392578-13.07285157-0.24785156V415.65732422c0.37089844 0.06152344 0.74794922 0.1125 1.11357422 0.18017578 62.34785156 10.65410156 111.52705078 27.19160156 150.33955078 50.54589844 50.36044922 30.29589844 84.93222656 74.40732422 97.34589844 124.19472656 6.32285156 25.36347656 5.10205078 49.96669922 4.01660156 71.67392578-0.66357422 13.303125-1.28847656 25.86357422 0.10107422 34.43642578 2.57607422 15.93544922 6.83964844 38.77294922 14.09589844 53.08857422 4.303125 8.49375 8.19580078 11.43017578 13.415625 13.61777344 2.18232422 0.86044922 10.37285156 2.75625 20.46972656 2.75625 5.09589844 0 8.48232422-0.48955078 10.06875-0.78222656 20.12607422-3.72392578 30.87597656-12.73535156 38.334375-32.146875 9.73125-25.31777344 11.06982422-64.66464844 3.76875-110.784375l-0.38232422-2.42402344-0.20830078-2.446875-2.59277344-30.18339844-3.32402343-38.79580078-6.46259766-75.36972656 74.65517578 1.66464843 8.99472656 0.20214844c17.13955078 0.39375 33.32285156 0.76464844 48.853125 0.76464844 65.07597656 0 97.29580078-7.425 111.20625-25.63857422 7.18330078-9.40517578 12.53232422-25.85214844 14.68125-45.13535156 2.50224609-22.42529297 0.53349609-46.97841797-5.53007812-69.14619141z"  horiz-adv-x="1024" />

    
    <glyph glyph-name="guanbi2" unicode="&#58886;" d="M583.168 372.224L958.464 747.52c18.944 18.944 18.944 50.176 0 69.12l-2.048 2.048c-18.944 18.944-50.176 18.944-69.12 0L512 442.88 136.704 818.688c-18.944 18.944-50.176 18.944-69.12 0l-2.048-2.048c-19.456-18.944-19.456-50.176 0-69.12l375.296-375.296L65.536-3.072c-18.944-18.944-18.944-50.176 0-69.12l2.048-2.048c18.944-18.944 50.176-18.944 69.12 0L512 301.056 887.296-74.24c18.944-18.944 50.176-18.944 69.12 0l2.048 2.048c18.944 18.944 18.944 50.176 0 69.12L583.168 372.224z"  horiz-adv-x="1024" />

    
    <glyph glyph-name="guanbi1" unicode="&#58887;" d="M583.168 372.224L958.464 747.52c18.944 18.944 18.944 50.176 0 69.12l-2.048 2.048c-18.944 18.944-50.176 18.944-69.12 0L512 442.88 136.704 818.688c-18.944 18.944-50.176 18.944-69.12 0l-2.048-2.048c-19.456-18.944-19.456-50.176 0-69.12l375.296-375.296L65.536-3.072c-18.944-18.944-18.944-50.176 0-69.12l2.048-2.048c18.944-18.944 50.176-18.944 69.12 0L512 301.056 887.296-74.24c18.944-18.944 50.176-18.944 69.12 0l2.048 2.048c18.944 18.944 18.944 50.176 0 69.12L583.168 372.224z"  horiz-adv-x="1024" />

    


  </font>
</defs>
</svg>
